<mxfile host="drawio-plugin" modified="2023-06-27T11:03:52.243Z" agent="5.0 (X11; Linux x86_64) AppleWebKit/537.36 (KHTML, like Gecko) Chrome/104.0.5112.102 Safari/537.36" etag="ZH5PRJ0tRIhsElnKkhuI" version="20.5.3" type="embed"><diagram id="23iRSUPoRavnBvh4doch" name="Page-1"><mxGraphModel dx="20" dy="1743" grid="0" gridSize="10" guides="1" tooltips="1" connect="1" arrows="1" fold="1" page="1" pageScale="1" pageWidth="827" pageHeight="1169" background="#ffffff" math="1" shadow="0"><root><mxCell id="0"/><mxCell id="1" parent="0"/><mxCell id="30" value="" style="rounded=1;whiteSpace=wrap;html=1;fillColor=#f5f5f5;fontColor=#333333;strokeColor=#666666;" vertex="1" parent="1"><mxGeometry x="843" y="-6" width="795" height="499" as="geometry"/></mxCell><mxCell id="7" style="edgeStyle=orthogonalEdgeStyle;rounded=0;orthogonalLoop=1;jettySize=auto;html=1;entryX=0;entryY=0.5;entryDx=0;entryDy=0;strokeColor=#000000;" parent="1" source="3" target="6" edge="1"><mxGeometry relative="1" as="geometry"/></mxCell><mxCell id="3" value="Sample sequence" style="rounded=0;whiteSpace=wrap;html=1;fillColor=#f5f5f5;fontColor=#333333;strokeColor=#666666;" parent="1" vertex="1"><mxGeometry x="864" y="51" width="120" height="60" as="geometry"/></mxCell><mxCell id="6" value="Point cloud sequence" style="rounded=0;whiteSpace=wrap;html=1;fillColor=#f5f5f5;fontColor=#333333;strokeColor=#666666;" parent="1" vertex="1"><mxGeometry x="1030" y="51" width="120" height="60" as="geometry"/></mxCell><mxCell id="8" value="Filter Ground&lt;br&gt;(first point, mesh, patchworks)" style="rounded=0;whiteSpace=wrap;html=1;fillColor=#f5f5f5;fontColor=#333333;strokeColor=#666666;" parent="1" vertex="1"><mxGeometry x="1375" y="51" width="120" height="60" as="geometry"/></mxCell><mxCell id="15" style="edgeStyle=orthogonalEdgeStyle;rounded=0;orthogonalLoop=1;jettySize=auto;html=1;strokeColor=#000000;entryX=0;entryY=0.5;entryDx=0;entryDy=0;" parent="1" source="10" target="20" edge="1"><mxGeometry relative="1" as="geometry"><mxPoint x="1710" y="90" as="targetPoint"/><Array as="points"/></mxGeometry></mxCell><mxCell id="18" value="Current Status" style="text;html=1;strokeColor=none;fillColor=none;align=center;verticalAlign=middle;whiteSpace=wrap;rounded=0;fontFamily=Helvetica;fontSize=12;fontColor=#333333;" parent="1" vertex="1"><mxGeometry x="870" y="356" width="60" height="30" as="geometry"/></mxCell><mxCell id="19" value="Idea" style="text;html=1;strokeColor=none;fillColor=none;align=center;verticalAlign=middle;whiteSpace=wrap;rounded=0;fontFamily=Helvetica;fontSize=12;fontColor=#333333;" parent="1" vertex="1"><mxGeometry x="870" y="10" width="60" height="30" as="geometry"/></mxCell><mxCell id="20" value="Intensity + normals&amp;nbsp;&lt;br&gt;Lane Segmentation" style="rounded=0;whiteSpace=wrap;html=1;fillColor=#f5f5f5;fontColor=#333333;strokeColor=#666666;" parent="1" vertex="1"><mxGeometry x="1375" y="166" width="120" height="60" as="geometry"/></mxCell><mxCell id="21" value="Yana's Approach&lt;br&gt;(most of it done)" style="rounded=0;whiteSpace=wrap;html=1;fillColor=#f5f5f5;fontColor=#333333;strokeColor=#666666;" parent="1" vertex="1"><mxGeometry x="860" y="395" width="120" height="60" as="geometry"/></mxCell><mxCell id="22" value="[ ] Understand the physics&lt;br&gt;[ ] Experiment with parameters (what helps and where)&lt;br&gt;[ ]&amp;nbsp;" style="text;html=1;strokeColor=none;fillColor=none;align=center;verticalAlign=middle;whiteSpace=wrap;rounded=0;fontFamily=Helvetica;fontSize=12;fontColor=#333333;" parent="1" vertex="1"><mxGeometry x="1358" y="238" width="186" height="61" as="geometry"/></mxCell><mxCell id="23" value="prob mask N x 2" style="text;html=1;strokeColor=none;fillColor=none;align=center;verticalAlign=middle;whiteSpace=wrap;rounded=0;fontFamily=Helvetica;fontSize=12;fontColor=#333333;" parent="1" vertex="1"><mxGeometry x="1523" y="168" width="112" height="58" as="geometry"/></mxCell><mxCell id="25" style="edgeStyle=orthogonalEdgeStyle;rounded=0;orthogonalLoop=1;jettySize=auto;html=1;entryX=0;entryY=0.5;entryDx=0;entryDy=0;fontFamily=Helvetica;fontSize=12;fontColor=#333333;fillColor=#f5f5f5;strokeColor=#666666;" parent="1" source="10" target="8" edge="1"><mxGeometry relative="1" as="geometry"/></mxCell><mxCell id="10" value="Estimate normals&lt;br&gt;(pytorch3d)" style="rounded=0;whiteSpace=wrap;html=1;fillColor=#f5f5f5;fontColor=#333333;strokeColor=#666666;" parent="1" vertex="1"><mxGeometry x="1196" y="51" width="120" height="60" as="geometry"/></mxCell><mxCell id="24" value="" style="edgeStyle=orthogonalEdgeStyle;rounded=0;orthogonalLoop=1;jettySize=auto;html=1;entryX=0;entryY=0.5;entryDx=0;entryDy=0;strokeColor=#000000;endArrow=none;" parent="1" source="6" target="10" edge="1"><mxGeometry relative="1" as="geometry"><mxPoint x="1150.0000000000002" y="81" as="sourcePoint"/><mxPoint x="1458" y="85" as="targetPoint"/></mxGeometry></mxCell><mxCell id="26" value="[ ] experiment with params&lt;br&gt;[ ] maybe include intensity" style="text;html=1;strokeColor=none;fillColor=none;align=center;verticalAlign=middle;whiteSpace=wrap;rounded=0;fontFamily=Helvetica;fontSize=12;fontColor=#333333;" parent="1" vertex="1"><mxGeometry x="1184" y="107" width="152" height="61" as="geometry"/></mxCell><mxCell id="28" value="Heuristics" style="text;html=1;strokeColor=none;fillColor=none;align=center;verticalAlign=middle;whiteSpace=wrap;rounded=0;fontFamily=Helvetica;fontSize=12;fontColor=#333333;" parent="1" vertex="1"><mxGeometry x="1385" y="13" width="100" height="30" as="geometry"/></mxCell><mxCell id="29" value="Criterions" style="text;html=1;strokeColor=none;fillColor=none;align=center;verticalAlign=middle;whiteSpace=wrap;rounded=0;fontFamily=Helvetica;fontSize=12;fontColor=#333333;" parent="1" vertex="1"><mxGeometry x="870" y="159" width="60" height="30" as="geometry"/></mxCell></root></mxGraphModel></diagram></mxfile>